<?xml version="1.0" encoding="utf-8"?>
<!-- Generator: Adobe Illustrator 16.0.0, SVG Export Plug-In . SVG Version: 6.00 Build 0)  -->
<!DOCTYPE svg PUBLIC "-//W3C//DTD SVG 1.1//EN" "http://www.w3.org/Graphics/SVG/1.1/DTD/svg11.dtd">
<svg version="1.1" id="Layer_1" xmlns="http://www.w3.org/2000/svg" xmlns:xlink="http://www.w3.org/1999/xlink" x="0px" y="0px"
	 width="262.25px" height="277.468px" viewBox="0 0 262.25 277.468" enable-background="new 0 0 262.25 277.468"
	 xml:space="preserve">
<path fill="#323031" d="M262.25,122.2c-43.938,13.043-62.474,11.671-62.474,11.671c64.561-15.146,55.608-63.847,55.608-63.847
	c-27.461,30.207-52.176,41.878-52.176,41.878c51.489-45.997,22.655-88.561,22.655-88.561c-11.671,54.922-33.64,66.592-33.64,66.592
	c39.132-63.16,0-89.934,0-89.934c0,36.385-10.983,66.592-19.909,84.441c-8.924,17.85-6.864,22.655-6.864,22.655
	c15.79,2.06,14.417,11.671,14.417,11.671c0,22.251-22.213,28.218-36.647,29.751c-0.543-4.398-1.247-10.109-1.994-16.201
	c-2.092-17.049-15.708-14.923-15.708-14.923c-10.447-5.102-11.661,3.773-11.661,3.773c2.131-1.865,5.532-1.197,6.645,1.408
	c0.412,0.964,0.71,2.166,0.789,3.661c0.207,3.926-1.607,14.537-3.049,22.198c-14.441-1.667-35.86-7.817-35.86-29.666
	c0,0-1.373-9.611,14.417-11.671c0,0,2.06-4.806-6.865-22.655C81.009,66.592,70.024,36.385,70.024,0c0,0-39.131,26.774,0,89.934
	c0,0-21.968-11.67-33.639-66.592c0,0-28.833,42.564,22.655,88.561c0,0-24.714-11.671-52.175-41.878c0,0-8.953,48.701,55.608,63.847
	c0,0-18.536,1.373-62.473-11.671c0,0,4.806,35.699,70.711,30.207c0,0-19.909,12.357-55.608,13.043c0,0,16.019,31.352,70.024-3.432
	c0,0-3.661,11.898-41.191,37.529c0,0,27.461,14.188,55.379-29.291c0,0-5.035,21.359-12.357,31.504c0,0,12.814,7.398,27.003-26.012
	c0,0,3.433,9.611-2.746,18.535c-2.738,3.955-2.704,8.643-0.931,11.781l-14.848,16.213c-0.535-0.209-1.257-0.467-2.138-0.708
	c-1.884-0.489-4.547-0.968-7.258-0.52c-0.673,0.075-1.343,0.313-1.993,0.468c-0.629,0.287-1.278,0.476-1.83,0.84
	c-0.552,0.361-1.104,0.676-1.497,1.143c-0.403,0.445-0.821,0.822-1.038,1.301c-0.228,0.451-0.436,0.864-0.62,1.23
	c-0.126,0.387-0.185,0.743-0.245,1.023c-0.123,0.559-0.145,0.877-0.145,0.877s0.254-0.234,0.615-0.646
	c0.183-0.204,0.417-0.438,0.628-0.726c0.271-0.235,0.578-0.501,0.912-0.789c0.282-0.321,0.718-0.517,1.093-0.794
	c0.352-0.314,0.855-0.445,1.287-0.697c0.922-0.417,2.003-0.652,3.12-0.703c1.113-0.053,2.251,0.039,3.319,0.172
	c1.07,0.141,2.059,0.398,2.908,0.609c0.297,0.078,0.545,0.15,0.8,0.224c-1.202,1.328-2.607,2.892-3.956,4.523
	c-1.755,2.06-3.508,4.122-4.653,5.826c-1.196,1.657-1.85,2.896-1.85,2.896s1.191-0.736,2.763-2.042
	c1.623-1.259,3.56-3.147,5.496-5.039c1.537-1.457,3-2.966,4.243-4.255c0.09,0.25,0.18,0.492,0.278,0.783
	c0.269,0.833,0.593,1.802,0.806,2.859c0.205,1.057,0.374,2.187,0.397,3.301c0.026,1.117-0.136,2.211-0.489,3.16
	c-0.222,0.448-0.319,0.959-0.608,1.332c-0.251,0.393-0.416,0.84-0.718,1.144c-0.266,0.353-0.509,0.677-0.725,0.963
	c-0.274,0.23-0.491,0.479-0.683,0.677c-0.385,0.388-0.603,0.657-0.603,0.657s0.317-0.044,0.867-0.204
	c0.275-0.078,0.626-0.162,1.003-0.314c0.354-0.209,0.752-0.444,1.187-0.701c0.462-0.25,0.81-0.691,1.227-1.125
	c0.439-0.424,0.715-0.996,1.037-1.571c0.327-0.575,0.471-1.235,0.714-1.883c0.111-0.659,0.302-1.345,0.331-2.021
	c0.263-2.736-0.396-5.359-1.013-7.206c-0.308-0.883-0.623-1.604-0.87-2.127c0.692-0.761,1.125-1.253,1.125-1.253l-0.066-0.063
	l13.457-14.693c1.273,1.035,2.893,1.559,4.74,1.32c-2.077,7.508-5.299,18.188-8.204,23.734c-4.768,9.102-5.634,23.404,7.368,32.506
	c0,0-0.434-22.104,7.368-43.341c0,0-3.467,46.808,7.801,55.042c11.269-8.234,7.802-55.042,7.802-55.042
	c7.801,21.237,7.367,43.341,7.367,43.341c13.003-9.102,12.136-23.404,7.368-32.506c-2.907-5.55-6.132-16.241-8.208-23.75
	c2.089,0.261,3.885-0.456,5.22-1.781l13.893,15.17l-0.066,0.063c0,0,0.433,0.492,1.124,1.253c-0.246,0.522-0.563,1.244-0.87,2.127
	c-0.616,1.847-1.275,4.47-1.013,7.206c0.03,0.676,0.221,1.361,0.332,2.021c0.242,0.647,0.387,1.308,0.713,1.883
	c0.322,0.575,0.6,1.147,1.037,1.571c0.417,0.434,0.766,0.875,1.228,1.125c0.435,0.257,0.833,0.492,1.186,0.701
	c0.377,0.152,0.729,0.236,1.004,0.314c0.55,0.16,0.866,0.204,0.866,0.204s-0.218-0.27-0.604-0.657
	c-0.191-0.197-0.407-0.446-0.682-0.677c-0.216-0.286-0.459-0.61-0.725-0.963c-0.303-0.304-0.468-0.751-0.719-1.144
	c-0.289-0.373-0.385-0.884-0.607-1.332c-0.354-0.949-0.516-2.043-0.488-3.16c0.023-1.114,0.191-2.244,0.396-3.301
	c0.213-1.058,0.537-2.026,0.807-2.859c0.098-0.291,0.188-0.533,0.277-0.783c1.243,1.289,2.707,2.798,4.243,4.255
	c1.936,1.892,3.873,3.78,5.496,5.039c1.572,1.306,2.764,2.042,2.764,2.042s-0.654-1.238-1.851-2.896
	c-1.145-1.704-2.897-3.767-4.652-5.826c-1.349-1.632-2.754-3.195-3.956-4.523c0.256-0.073,0.503-0.146,0.8-0.224
	c0.85-0.211,1.838-0.469,2.909-0.609c1.067-0.133,2.206-0.225,3.319-0.172c1.116,0.051,2.196,0.286,3.119,0.703
	c0.432,0.252,0.936,0.383,1.287,0.697c0.375,0.277,0.811,0.473,1.092,0.794c0.335,0.288,0.641,0.554,0.912,0.789
	c0.211,0.288,0.445,0.521,0.629,0.726c0.36,0.412,0.614,0.646,0.614,0.646s-0.022-0.318-0.146-0.877
	c-0.059-0.28-0.118-0.637-0.244-1.023c-0.185-0.366-0.393-0.779-0.619-1.23c-0.218-0.479-0.635-0.855-1.039-1.301
	c-0.393-0.467-0.945-0.781-1.497-1.143c-0.552-0.364-1.2-0.553-1.829-0.84c-0.65-0.155-1.321-0.393-1.994-0.468
	c-2.711-0.448-5.374,0.03-7.258,0.52c-0.881,0.241-1.604,0.499-2.139,0.708l-15.447-16.869c1.436-3.113,1.313-7.432-1.242-11.125
	c-6.179-8.924-2.746-18.535-2.746-18.535c14.188,33.41,27.003,26.012,27.003,26.012c-7.322-10.145-12.357-31.504-12.357-31.504
	c27.919,43.479,55.379,29.291,55.379,29.291c-37.53-25.631-41.191-37.529-41.191-37.529c54.007,34.783,70.025,3.432,70.025,3.432
	c-35.699-0.686-55.608-13.043-55.608-13.043C257.444,157.899,262.25,122.2,262.25,122.2z"/>
</svg>
